<?xml version="1.0" encoding="UTF-8" standalone="no"?>
<!-- Created with Inkscape (http://www.inkscape.org/) -->

<svg
   xmlns:dc="http://purl.org/dc/elements/1.1/"
   xmlns:cc="http://creativecommons.org/ns#"
   xmlns:rdf="http://www.w3.org/1999/02/22-rdf-syntax-ns#"
   xmlns:svg="http://www.w3.org/2000/svg"
   xmlns="http://www.w3.org/2000/svg"
   xmlns:sodipodi="http://sodipodi.sourceforge.net/DTD/sodipodi-0.dtd"
   xmlns:inkscape="http://www.inkscape.org/namespaces/inkscape"
   width="560px"
   height="560px"
   viewBox="0 0 560 560"
   version="1.1"
   id="SVGRoot"
   inkscape:version="0.92.3 (2405546, 2018-03-11)"
   sodipodi:docname="avatar01.svg">
  <sodipodi:namedview
     id="base"
     pagecolor="#ffffff"
     bordercolor="#666666"
     borderopacity="1.0"
     inkscape:pageopacity="0.0"
     inkscape:pageshadow="2"
     inkscape:zoom="0.91428571"
     inkscape:cx="130.15625"
     inkscape:cy="280"
     inkscape:document-units="px"
     inkscape:current-layer="layer1"
     showgrid="false"
     inkscape:window-width="2560"
     inkscape:window-height="1019"
     inkscape:window-x="0"
     inkscape:window-y="33"
     inkscape:window-maximized="1" />
  <defs
     id="defs1119">
    <clipPath
       id="clip-path-13">
      <circle
         class="cls-2"
         cx="1960"
         cy="280"
         r="280"
         id="circle45" />
    </clipPath>
  </defs>
  <metadata
     id="metadata1122">
    <rdf:RDF>
      <cc:Work
         rdf:about="">
        <dc:format>image/svg+xml</dc:format>
        <dc:type
           rdf:resource="http://purl.org/dc/dcmitype/StillImage" />
        <dc:title></dc:title>
      </cc:Work>
    </rdf:RDF>
  </metadata>
  <g
     id="layer1"
     inkscape:groupmode="layer"
     inkscape:label="Capa 1">
    <circle
       class="cls-1"
       cx="280"
       cy="280"
       r="280"
       id="circle1017"
       style="fill:#ffffff" />
    <g
       class="cls-27"
       clip-path="url(#clip-path-13)"
       id="g1069"
       transform="translate(-1680.045,-46.14)">
      <path
         id="path1019"
         data-name="body-bg"
         class="cls-1"
         d="m 1787.34,562.61 c 0,0 -14.39,-110.95 96.52,-121 h 26.62 c 0,0 8.72,-5.63 14.85,-5.63 v -15.85 c 0,0 33.23,16.57 67.59,0.51 V 435 c 0,0 1.46,-2.75 16.38,7.16 h 39.94 c 0,0 84.91,10.48 84.91,120.47 z"
         inkscape:connector-curvature="0"
         style="fill:#ffffff" />
      <path
         id="path1021"
         data-name="Rounded Rectangle 13 copy 4"
         class="cls-4"
         d="m 2130.87,566.92 h -348 l 1.65,-28.24 c 3.23,-55.13 46.66,-97.21 96.37,-97.21 H 1915 a 23.42,23.42 0 0 0 -5,5.63 h -26.15 c -47.91,0 -89.77,40.5 -92.88,93.57 l -1.15,19.59 H 2130 l -0.63,-19.59 c -3.11,-53.07 -45,-93.57 -92.89,-93.57 h -26.17 a 21.65,21.65 0 0 0 -4.41,-5.63 h 33.3 c 49.71,0 93.14,42.08 96.37,97.21 l 1.65,28.24 z M 1995.73,447.1 h -1.79 v -5.63 h 2 c -0.13,1.47 -0.21,3.31 -0.21,5.63 z m -72,-5.63 h 2.13 v 5.63 H 1924 c 0,-2.39 -0.13,-4.22 -0.29,-5.63 z"
         inkscape:connector-curvature="0"
         style="fill:#3b434f" />
      <path
         id="path1023"
         data-name="Ellipse 5"
         class="cls-4"
         d="m 1976,519.81 a 3.59,3.59 0 1 1 -3.58,3.58 3.58,3.58 0 0 1 3.58,-3.58 z"
         inkscape:connector-curvature="0"
         style="fill:#3b434f" />
      <path
         id="path1025"
         data-name="Ellipse 5 copy"
         class="cls-4"
         d="m 1976,543.36 a 3.59,3.59 0 1 1 -3.58,3.59 3.58,3.58 0 0 1 3.58,-3.59 z"
         inkscape:connector-curvature="0"
         style="fill:#3b434f" />
      <path
         id="path1027"
         data-name="Shape 2 copy 9"
         class="cls-4"
         d="m 2017.49,471.68 -26.11,38.91 c -7.1,-22 -27.65,-13.82 -27.65,-13.82 v 65 a 3.63,3.63 0 0 1 -7.17,0 v -65 c -0.16,-0.07 -20.54,-8.1 -27.61,13.82 l -26.09,-38.91 c 0,0 -10.09,-25.65 20.46,-36.86 V 423 h 5.78 v 37.1 c 0.74,6.38 5.13,24.56 31.05,30.53 25.94,-6 30.34,-24.15 31.08,-30.53 V 423 h 5.77 v 11.78 c 30.59,11.22 20.49,36.9 20.49,36.9 z m -88.84,3.45 a 36.53,36.53 0 0 1 -3.4,-5.5 c 0,0 -1.93,-6.4 -1.93,-9.21 v -13 c -0.43,-5.86 -1.53,-6 -1.53,-6 C 1899,452.7 1909,470.15 1909,470.15 l 18.93,29.69 c 7.39,-12.52 15.34,-10.24 15.34,-10.24 a 35.17,35.17 0 0 1 -14.62,-14.47 z m 69.9,-33.66 c 0,0 -1.1,0.1 -1.54,6 v 13 c 0,2.81 -1.93,9.21 -1.93,9.21 a 36.53,36.53 0 0 1 -3.4,5.5 35.23,35.23 0 0 1 -14.68,14.42 c 0,0 8,-2.28 15.36,10.24 l 18.95,-29.69 c 0,0 10.06,-17.45 -12.76,-28.68 z"
         inkscape:connector-curvature="0"
         style="fill:#3b434f" />
      <path
         id="path1029"
         data-name="2 copy 5"
         class="cls-1"
         d="m 1960.4,100 c 63.7,0 114,59.52 112.34,131 l -1.74,76 c -1.54,67.38 -51,120.64 -110.6,120.64 -59.6,0 -109.05,-53.25 -110.59,-120.64 l -1.74,-76 c -1.64,-71.52 48.64,-131 112.33,-131 z"
         inkscape:connector-curvature="0"
         style="fill:#ffffff" />
      <path
         id="path1031"
         data-name="2 line"
         class="cls-4"
         d="m 2077.86,228.64 -1.82,79.1 c -1.62,70.12 -53.48,125.54 -115.89,125.54 -62.41,0 -114.28,-55.42 -115.89,-125.54 l -1.82,-79.1 c -1.71,-74.42 51,-136.36 117.71,-136.36 66.71,0 119.42,61.94 117.71,136.36 z m -118,-128.17 c -62.82,0 -112.41,59.06 -110.8,130 l 1.72,75.42 c 1.52,66.85 50.34,119.69 109.08,119.69 58.74,0 107.6,-52.82 109.14,-119.67 l 1.71,-75.42 c 1.6,-70.96 -47.99,-130.02 -110.82,-130.02 z"
         inkscape:connector-curvature="0"
         style="fill:#3b434f" />
      <path
         id="path1033"
         data-name="1 copy 4"
         class="cls-15"
         d="m 2074.66,241.79 -5.12,84 c 0,0 -22.74,96.89 -110.54,108.37 v 0.14 l -0.51,-0.07 -0.52,0.07 v -0.14 c -87.85,-11.48 -110.59,-108.4 -110.59,-108.4 l -5.12,-84 c 22.8,101.19 42,107.52 42,107.52 -3.88,-30.69 27.65,-27.65 27.65,-27.65 a 395.52,395.52 0 0 0 46.6,5.4 395.63,395.63 0 0 0 46.59,-5.4 c 0,0 31.53,-3 27.65,27.65 -0.07,0.03 19.11,-6.28 41.91,-107.49 z m -56.93,117.93 c -1.49,-18.05 -12.38,-16.52 -12.38,-16.52 -19.35,5.69 -34.54,8.85 -46.4,10.46 v -0.12 c -11.79,-1.59 -26.87,-4.73 -46.08,-10.37 0,0 -10.81,-1.52 -12.29,16.38 0,0 -4.34,17.94 10.24,25.6 l 18.43,19.46 c 0,0 12.6,4 12.29,-11.27 0,0 -1.28,-11.38 6.14,-13.31 H 1959 v 0.34 h 11.34 c 7.48,1.95 6.19,13.42 6.19,13.42 -0.31,15.38 12.37,11.36 12.37,11.36 l 18.57,-19.62 c 14.63,-7.73 10.26,-25.81 10.26,-25.81 z"
         inkscape:connector-curvature="0"
         style="opacity:0.06000001;isolation:isolate;fill:#3b434f" />
      <path
         id="path1035"
         data-name="usta"
         class="cls-4"
         d="m 2015.44,353 c -9.3,8.08 -30.32,15.77 -54.78,15.77 -24.46,0 -45.48,-7.69 -54.79,-15.77 0,0 -0.95,-2.62 0.45,-4 a 4.73,4.73 0 0 1 3.65,-1.11 c 9.3,8.08 26.22,14.75 50.69,14.75 24.47,0 41.39,-6.67 50.69,-14.75 0,0 2.27,-0.85 3.38,0.26 a 4.31,4.31 0 0 1 0.71,4.85 z"
         inkscape:connector-curvature="0"
         style="fill:#3b434f" />
      <path
         id="path1037"
         data-name="-"
         class="cls-4"
         d="m 1943.76,381.05 h 32.77 v 5.12 h -32.77 z"
         inkscape:connector-curvature="0"
         style="fill:#3b434f" />
      <path
         id="path1039"
         data-name="Shape 11 copy"
         class="cls-1"
         d="m 1842.31,240.18 a 12.25,12.25 0 0 0 -3.6,-1.73 17.15,17.15 0 0 0 -4.3,-0.75 c -0.41,0 -0.84,0 -1.27,0 -0.43,0 -0.89,0 -1.34,0.09 a 16.72,16.72 0 0 0 -2.79,0.54 15,15 0 0 0 -9.91,9.19 30.46,30.46 0 0 0 -2.1,10.48 c 0,1.08 -0.07,2.2 0,3.39 0.07,1.19 0.08,2.42 0.18,3.72 0.2,2.59 0.55,5.43 1.08,8.51 a 63.42,63.42 0 0 0 2.84,20 c 3.14,10.48 10.66,23.35 24.56,27 -1.6,-26.61 -1.65,-53.73 -3.32,-80.46 z"
         inkscape:connector-curvature="0"
         style="fill:#ffffff" />
      <path
         id="path1041"
         data-name="Shape 3"
         class="cls-4"
         d="m 1843.9,241.25 c 0,0 -24.22,-7.5 -23.36,17.39 0,0 3.6,36.09 5.17,39.42 0,0 9.51,21 25.2,21.95 v 0 l 0.19,6.77 c 0,0 -27.58,-3.54 -32.91,-35.32 l -4.2,-28.88 c 0,0 -3.27,-38.21 28.4,-28.5 v 0 l 1.51,7.17"
         inkscape:connector-curvature="0"
         style="fill:#3b434f" />
      <path
         id="path1043"
         data-name="Shape 4"
         class="cls-4"
         d="m 1835.91,291.4 a 5.26,5.26 0 0 1 -2.52,1 5.15,5.15 0 0 1 -2.51,-1 l -2.49,-25.18 c 0,0 3.44,-12.4 18.07,-5.85 l 0.35,7.2 c 0,0 -12.84,-4.55 -12.57,1.12 0.25,5.45 1.67,22.71 1.67,22.71 z"
         inkscape:connector-curvature="0"
         style="fill:#3b434f" />
      <path
         id="path1045"
         data-name="Shape 11 copy_1"
         class="cls-23"
         d="m 2078.73,240.24 a 12.4,12.4 0 0 1 3.62,-1.73 17.23,17.23 0 0 1 4.31,-0.75 c 0.42,0 0.84,0 1.28,0 0.44,0 0.89,0 1.35,0.09 a 17,17 0 0 1 2.8,0.54 15.08,15.08 0 0 1 9.95,9.18 30.66,30.66 0 0 1 2.1,10.44 c 0.05,1.07 0.06,2.2 0,3.38 -0.06,1.18 -0.08,2.42 -0.18,3.72 -0.2,2.59 -0.55,5.42 -1.08,8.51 a 63.1,63.1 0 0 1 -2.86,20 c -3.15,10.47 -10.71,23.33 -24.67,27 1.61,-26.6 1.66,-53.7 3.34,-80.41 z"
         inkscape:connector-curvature="0"
         style="fill:#f7fbfb" />
      <path
         id="path1047"
         data-name="Shape 3_1"
         class="cls-4"
         d="m 2075.93,241.31 c 0,0 24.32,-7.5 23.46,17.38 0,0 -3.62,36.07 -5.19,39.39 0,0 -9.55,21 -25.31,21.93 v 0 l -0.19,6.77 c 0,0 27.7,-3.53 33.05,-35.3 l 4.22,-28.85 c 0,0 3.28,-38.19 -28.53,-28.48 v 0 l -1.51,7.16"
         inkscape:connector-curvature="0"
         style="fill:#3b434f" />
      <path
         id="path1049"
         data-name="Shape 4_1"
         class="cls-4"
         d="m 2084,291.42 a 5.26,5.26 0 0 0 2.53,1 5.15,5.15 0 0 0 2.51,-1 l 2.51,-25.16 c 0,0 -3.46,-12.39 -18.16,-5.84 l -0.34,7.19 c 0,0 12.89,-4.55 12.62,1.12 -0.3,5.45 -1.67,22.69 -1.67,22.69 z"
         inkscape:connector-curvature="0"
         style="fill:#3b434f" />
      <path
         id="path1051"
         data-name="Shape 11"
         class="cls-1"
         d="m 2077,240.22 a 12.75,12.75 0 0 1 3.61,-1.74 17.06,17.06 0 0 1 4.3,-0.75 c 0.41,0 0.84,0 1.28,0 0.44,0 0.88,0 1.34,0.09 a 16.77,16.77 0 0 1 2.79,0.55 15,15 0 0 1 9.92,9.22 31.06,31.06 0 0 1 2.09,10.5 c 0.05,1.08 0.06,2.21 0,3.4 -0.06,1.19 -0.08,2.43 -0.18,3.74 q -0.29,3.9 -1.08,8.55 a 63.63,63.63 0 0 1 -2.84,20.13 c -3.14,10.53 -10.68,23.46 -24.59,27.16 1.6,-26.74 1.65,-54 3.32,-80.84 z"
         inkscape:connector-curvature="0"
         style="fill:#ffffff" />
      <path
         id="path1053"
         data-name="Shape 3_2"
         class="cls-4"
         d="m 2076.46,241.31 c 0,0 24.32,-7.5 23.46,17.38 0,0 -3.62,36.07 -5.19,39.39 0,0 -9.55,21 -25.31,21.93 v 0 l -0.2,6.77 c 0,0 27.71,-3.53 33.06,-35.3 l 4.22,-28.85 c 0,0 3.28,-38.19 -28.53,-28.48 v 0 l -1.51,7.16"
         inkscape:connector-curvature="0"
         style="fill:#3b434f" />
      <path
         id="path1055"
         data-name="Shape 4_2"
         class="cls-4"
         d="m 2084.48,291.42 h 5.05 l 2.51,-25.16 c 0,0 -3.46,-12.39 -18.16,-5.84 l -0.35,7.19 c 0,0 12.9,-4.55 12.63,1.12 -0.26,5.45 -1.68,22.69 -1.68,22.69 z"
         inkscape:connector-curvature="0"
         style="fill:#3b434f" />
      <path
         id="path1057"
         data-name="new vector shape done"
         class="cls-4"
         d="m 1969.62,289.4 h 1.79 c 3.71,5 5.21,12.77 7.17,19.46 0.61,2.07 0,5.7 -0.51,7.17 -1.94,5.37 -8,5.27 -13.06,7.68 -1.35,0.64 -2.35,1.76 -4.09,2.05 -1.14,-1 -2.52,-1.2 -3.08,-2.82 -1.38,-1.9 0.4,-3.09 1.8,-3.84 2.52,-1.35 10.33,-2.69 11.26,-5.12 1.16,-1.31 0.39,-5.27 0,-6.66 -1,-3.55 -1.47,-6.52 -2.82,-9.72 -0.89,-2.13 -2.46,-4.38 -1.53,-6.92 0.77,-0.33 2.45,-0.68 3.07,-1.28 z"
         inkscape:connector-curvature="0"
         style="fill:#3b434f" />
      <path
         id="path1059"
         data-name="Rounded Rectangle 8"
         class="cls-4"
         d="m 1898.71,250 h 7.16 a 7.17,7.17 0 1 1 0,14.34 h -7.16 a 7.17,7.17 0 0 1 0,-14.34 z"
         inkscape:connector-curvature="0"
         style="fill:#3b434f" />
      <path
         id="path1061"
         data-name="Rounded Rectangle 8 copy"
         class="cls-4"
         d="m 2015.44,250 h 7.17 a 7.17,7.17 0 1 1 0,14.34 h -7.17 a 7.17,7.17 0 0 1 0,-14.34 z"
         inkscape:connector-curvature="0"
         style="fill:#3b434f" />
      <path
         id="path1063"
         data-name="Rounded Rectangle 10"
         class="cls-28"
         d="m 1870,231.55 h 68.61 a 7.17,7.17 0 0 1 7.17,7.16 v 44 a 7.17,7.17 0 0 1 -7.17,7.17 H 1870 a 7.17,7.17 0 0 1 -7.17,-7.17 v -44 a 7.17,7.17 0 0 1 7.17,-7.16 z"
         inkscape:connector-curvature="0"
         style="opacity:0.15;isolation:isolate;fill:#3b434f" />
      <path
         id="path1065"
         data-name="Rounded Rectangle 10 copy"
         class="cls-28"
         d="m 1980.63,231.55 h 68.61 a 7.17,7.17 0 0 1 7.17,7.16 v 44 a 7.17,7.17 0 0 1 -7.17,7.17 h -68.61 a 7.17,7.17 0 0 1 -7.17,-7.17 v -44 a 7.17,7.17 0 0 1 7.17,-7.16 z"
         inkscape:connector-curvature="0"
         style="opacity:0.15;isolation:isolate;fill:#3b434f" />
      <path
         id="path1067"
         data-name="Shape 1 copy 5"
         class="cls-4"
         d="m 2062.55,236.67 v 37.89 c 0,9.25 -9,23.7 -23.75,24.53 -2.16,-0.1 -45.88,0 -45.88,0 -19.66,0 -23.56,-23.55 -23.56,-23.55 V 250 h -18.43 v 25.6 c 0,0 -3.9,23.55 -23.55,23.55 0,0 -43.72,-0.14 -45.89,0 -14.71,-0.83 -23.75,-15.28 -23.75,-24.53 v -37.95 h -16.38 v -10.24 h 95.23 c 0,0 14.34,2.31 14.34,12.28 h 18.43 c 0,-10 14.34,-12.28 14.34,-12.28 h 95.23 v 10.24 z m -121.86,5.12 c 0,-3.65 -4.1,-4.1 -4.1,-4.1 H 1868 v 35.84 c 0,11.17 15.37,15.36 15.37,15.36 h 42 c 14.45,0 15.36,-15.36 15.36,-15.36 z m 111.62,-4.1 h -68.61 c 0,0 -4.1,0.45 -4.1,4.1 v 31.74 c 0,0 0.92,15.36 15.36,15.36 h 42 c 0,0 15.36,-4.19 15.36,-15.36 z M 2038,299.13 c 0.28,0 0.56,0 0.83,0 0.27,0 -0.03,-0.02 -0.83,0 z m -156.48,0 c 0.28,0 0.55,0 0.83,0 -0.86,-0.02 -1.09,-0.03 -0.86,-0.04 z"
         inkscape:connector-curvature="0"
         style="fill:#3b434f" />
    </g>
  </g>
</svg>
